<?xml version="1.0" encoding="utf-8"?>
<!-- Generator: Adobe Illustrator 16.0.0, SVG Export Plug-In . SVG Version: 6.00 Build 0)  -->
<!DOCTYPE svg PUBLIC "-//W3C//DTD SVG 1.1//EN" "http://www.w3.org/Graphics/SVG/1.1/DTD/svg11.dtd">
<svg version="1.1" id="Layer_1" xmlns="http://www.w3.org/2000/svg" xmlns:xlink="http://www.w3.org/1999/xlink" x="0px" y="0px"
	 width="360px" height="360px" viewBox="0 0 360 360" enable-background="new 0 0 360 360" xml:space="preserve">
<path fill="#2CAAE1" d="M330,317.328c0,6.627-5.373,12-12,12H42c-6.627,0-12-5.373-12-12V42.672c0-6.627,5.373-12,12-12h276
	c6.627,0,12,5.373,12,12V317.328z"/>
<path fill="#FFFFFF" d="M274.217,124.42c-6.712,2.977-13.926,4.989-21.496,5.894c7.727-4.633,13.662-11.968,16.456-20.708
	c-7.232,4.289-15.242,7.404-23.768,9.083c-6.827-7.274-16.555-11.819-27.32-11.819c-20.67,0-37.429,16.758-37.429,37.428
	c0,2.934,0.331,5.79,0.969,8.529c-31.106-1.561-58.685-16.462-77.145-39.105c-3.222,5.527-5.068,11.956-5.068,18.815
	c0,12.985,6.607,24.442,16.651,31.154c-6.135-0.194-11.907-1.878-16.953-4.683c-0.004,0.157-0.004,0.313-0.004,0.472
	c0,18.134,12.902,33.261,30.024,36.7c-3.141,0.855-6.447,1.313-9.861,1.313c-2.412,0-4.756-0.235-7.042-0.672
	c4.763,14.869,18.585,25.691,34.964,25.992c-12.81,10.04-28.948,16.022-46.484,16.022c-3.021,0-6-0.177-8.929-0.523
	c16.564,10.62,36.238,16.817,57.375,16.817c68.845,0,106.492-57.033,106.492-106.493c0-1.622-0.036-3.236-0.108-4.843
	C262.854,138.518,269.199,131.926,274.217,124.42z"/>
</svg>
